<?xml version="1.0" encoding="UTF-8" standalone="no"?>
<!DOCTYPE svg PUBLIC "-//W3C//DTD SVG 1.1//EN" "http://www.w3.org/Graphics/SVG/1.1/DTD/svg11.dtd">
<svg width="100%" height="100%" viewBox="0 0 6256 353" version="1.1" xmlns="http://www.w3.org/2000/svg" xmlns:xlink="http://www.w3.org/1999/xlink" xml:space="preserve" xmlns:serif="http://www.serif.com/" style="fill-rule:evenodd;clip-rule:evenodd;stroke-linejoin:round;stroke-miterlimit:2;">
    <g transform="matrix(1,0,0,1,-120,-131.449)">
        <g transform="matrix(1,0,0,1,-7.33341,-383.837)">
            <g transform="matrix(416.667,0,0,416.667,96.4089,862.635)">
                <path d="M0.074,-0.745L0.441,-0.745C0.573,-0.745 0.675,-0.709 0.747,-0.635C0.819,-0.562 0.855,-0.474 0.855,-0.371C0.855,-0.305 0.839,-0.243 0.806,-0.185C0.773,-0.126 0.725,-0.081 0.662,-0.049C0.599,-0.016 0.523,0 0.433,0L0.074,0L0.074,-0.745ZM0.404,-0.46L0.404,-0.285L0.412,-0.285C0.452,-0.285 0.481,-0.292 0.498,-0.306C0.516,-0.32 0.525,-0.342 0.525,-0.374C0.525,-0.431 0.492,-0.46 0.425,-0.46L0.404,-0.46Z" style="fill-rule:nonzero;"/>
            </g>
            <g transform="matrix(416.667,0,0,416.667,465.061,862.635)">
                <rect x="0.075" y="-0.745" width="0.33" height="0.745" style="fill-rule:nonzero;"/>
            </g>
            <g transform="matrix(416.667,0,0,416.667,664.646,862.635)">
                <path d="M0.072,0L0.072,-0.745L0.402,-0.745L0.402,-0.187L0.691,-0.187L0.691,0L0.072,0Z" style="fill-rule:nonzero;"/>
            </g>
            <g transform="matrix(416.667,0,0,416.667,955.58,862.635)">
                <path d="M0.072,0L0.072,-0.745L0.402,-0.745L0.402,-0.187L0.691,-0.187L0.691,0L0.072,0Z" style="fill-rule:nonzero;"/>
            </g>
            <g transform="matrix(416.667,0,0,416.667,1246.51,862.635)">
                <path d="M0.427,0.012C0.32,0.012 0.23,-0.025 0.156,-0.1C0.082,-0.175 0.045,-0.266 0.045,-0.373C0.045,-0.48 0.082,-0.571 0.156,-0.645C0.23,-0.72 0.32,-0.757 0.427,-0.757C0.534,-0.757 0.624,-0.72 0.698,-0.645C0.772,-0.571 0.809,-0.48 0.809,-0.373C0.809,-0.266 0.772,-0.175 0.698,-0.1C0.624,-0.025 0.534,0.012 0.427,0.012ZM0.427,-0.471C0.406,-0.471 0.388,-0.464 0.374,-0.449C0.36,-0.434 0.353,-0.416 0.353,-0.393C0.353,-0.371 0.36,-0.352 0.374,-0.337C0.388,-0.322 0.406,-0.315 0.427,-0.315C0.448,-0.315 0.466,-0.322 0.48,-0.337C0.494,-0.352 0.501,-0.371 0.501,-0.393C0.501,-0.416 0.494,-0.434 0.48,-0.449C0.466,-0.464 0.448,-0.471 0.427,-0.471Z" style="fill-rule:nonzero;"/>
            </g>
            <g transform="matrix(416.667,0,0,416.667,1602.35,862.635)">
                <path d="M0.813,0.006L0.563,0.006L0.403,-0.229L0.403,0L0.073,0L0.073,-0.745L0.309,-0.745L0.483,-0.493L0.483,-0.745L0.813,-0.745L0.813,0.006Z" style="fill-rule:nonzero;"/>
            </g>
            <g transform="matrix(416.667,0,0,416.667,2109.76,862.635)">
                <path d="M0.176,-0.745L0.506,-0.745L0.506,-0.303C0.506,-0.208 0.501,-0.142 0.491,-0.106C0.481,-0.071 0.457,-0.042 0.421,-0.02C0.385,0.001 0.341,0.012 0.29,0.012C0.222,0.012 0.162,-0.004 0.11,-0.038C0.058,-0.071 0.023,-0.116 0.005,-0.173C0.023,-0.169 0.047,-0.167 0.076,-0.167C0.118,-0.167 0.146,-0.173 0.158,-0.186C0.17,-0.199 0.176,-0.225 0.176,-0.264L0.176,-0.745Z" style="fill-rule:nonzero;"/>
            </g>
            <g transform="matrix(416.667,0,0,416.667,2344.33,862.635)">
                <path d="M0.427,0.012C0.32,0.012 0.23,-0.025 0.156,-0.1C0.082,-0.175 0.045,-0.266 0.045,-0.373C0.045,-0.48 0.082,-0.571 0.156,-0.645C0.23,-0.72 0.32,-0.757 0.427,-0.757C0.534,-0.757 0.624,-0.72 0.698,-0.645C0.772,-0.571 0.809,-0.48 0.809,-0.373C0.809,-0.266 0.772,-0.175 0.698,-0.1C0.624,-0.025 0.534,0.012 0.427,0.012ZM0.427,-0.471C0.406,-0.471 0.388,-0.464 0.374,-0.449C0.36,-0.434 0.353,-0.416 0.353,-0.393C0.353,-0.371 0.36,-0.352 0.374,-0.337C0.388,-0.322 0.406,-0.315 0.427,-0.315C0.448,-0.315 0.466,-0.322 0.48,-0.337C0.494,-0.352 0.501,-0.371 0.501,-0.393C0.501,-0.416 0.494,-0.434 0.48,-0.449C0.466,-0.464 0.448,-0.471 0.427,-0.471Z" style="fill-rule:nonzero;"/>
            </g>
            <g transform="matrix(416.667,0,0,416.667,2700.17,862.635)">
                <path d="M0.073,-0.745L0.56,-0.745C0.644,-0.745 0.711,-0.724 0.759,-0.681C0.807,-0.639 0.831,-0.586 0.831,-0.522C0.831,-0.452 0.803,-0.397 0.746,-0.357C0.826,-0.265 0.875,-0.146 0.89,0L0.548,0C0.542,-0.094 0.528,-0.164 0.506,-0.208C0.484,-0.253 0.449,-0.276 0.403,-0.276L0.403,0L0.073,0L0.073,-0.745ZM0.403,-0.592L0.403,-0.448L0.412,-0.448C0.471,-0.448 0.501,-0.472 0.501,-0.518C0.501,-0.538 0.495,-0.555 0.483,-0.57C0.471,-0.584 0.451,-0.592 0.423,-0.592L0.403,-0.592Z" style="fill-rule:nonzero;"/>
            </g>
            <g transform="matrix(416.667,0,0,416.667,3073.5,862.635)">
                <path d="M0.074,-0.745L0.441,-0.745C0.573,-0.745 0.675,-0.709 0.747,-0.635C0.819,-0.562 0.855,-0.474 0.855,-0.371C0.855,-0.305 0.839,-0.243 0.806,-0.185C0.773,-0.126 0.725,-0.081 0.662,-0.049C0.599,-0.016 0.523,0 0.433,0L0.074,0L0.074,-0.745ZM0.404,-0.46L0.404,-0.285L0.412,-0.285C0.452,-0.285 0.481,-0.292 0.498,-0.306C0.516,-0.32 0.525,-0.342 0.525,-0.374C0.525,-0.431 0.492,-0.46 0.425,-0.46L0.404,-0.46Z" style="fill-rule:nonzero;"/>
            </g>
            <g transform="matrix(416.667,0,0,416.667,3425.47,862.635)">
                <path d="M0.331,0L0.001,0L0.26,-0.745L0.73,-0.745L0.989,0L0.659,0L0.616,-0.126L0.374,-0.126L0.331,0ZM0.434,-0.302L0.556,-0.302L0.495,-0.487L0.434,-0.302Z" style="fill-rule:nonzero;"/>
            </g>
            <g transform="matrix(416.667,0,0,416.667,3838.07,862.635)">
                <path d="M0.813,0.006L0.563,0.006L0.403,-0.229L0.403,0L0.073,0L0.073,-0.745L0.309,-0.745L0.483,-0.493L0.483,-0.745L0.813,-0.745L0.813,0.006Z" style="fill-rule:nonzero;"/>
            </g>
            <g transform="matrix(416.667,0,0,416.667,4345.47,862.635)">
                <path d="M0.075,-0.745L0.527,-0.745C0.622,-0.745 0.695,-0.721 0.747,-0.673C0.798,-0.624 0.823,-0.564 0.823,-0.493C0.823,-0.424 0.799,-0.364 0.75,-0.315C0.702,-0.267 0.644,-0.242 0.575,-0.242C0.518,-0.242 0.461,-0.264 0.405,-0.307L0.405,0L0.075,0L0.075,-0.745ZM0.405,-0.584L0.405,-0.422C0.415,-0.419 0.424,-0.418 0.432,-0.418C0.457,-0.418 0.477,-0.426 0.492,-0.441C0.507,-0.457 0.515,-0.478 0.515,-0.503C0.515,-0.528 0.509,-0.548 0.496,-0.562C0.483,-0.577 0.464,-0.584 0.44,-0.584L0.405,-0.584Z" style="fill-rule:nonzero;"/>
            </g>
            <g transform="matrix(416.667,0,0,416.667,4692.56,862.635)">
                <path d="M0.4,0L0.07,0L0.07,-0.745L0.4,-0.745L0.4,-0.472L0.568,-0.472L0.568,-0.745L0.898,-0.745L0.898,0L0.568,0L0.568,-0.277L0.4,-0.277L0.4,0Z" style="fill-rule:nonzero;"/>
            </g>
            <g transform="matrix(416.667,0,0,416.667,5096.41,862.635)">
                <path d="M0.427,0.012C0.32,0.012 0.23,-0.025 0.156,-0.1C0.082,-0.175 0.045,-0.266 0.045,-0.373C0.045,-0.48 0.082,-0.571 0.156,-0.645C0.23,-0.72 0.32,-0.757 0.427,-0.757C0.534,-0.757 0.624,-0.72 0.698,-0.645C0.772,-0.571 0.809,-0.48 0.809,-0.373C0.809,-0.266 0.772,-0.175 0.698,-0.1C0.624,-0.025 0.534,0.012 0.427,0.012ZM0.427,-0.471C0.406,-0.471 0.388,-0.464 0.374,-0.449C0.36,-0.434 0.353,-0.416 0.353,-0.393C0.353,-0.371 0.36,-0.352 0.374,-0.337C0.388,-0.322 0.406,-0.315 0.427,-0.315C0.448,-0.315 0.466,-0.322 0.48,-0.337C0.494,-0.352 0.501,-0.371 0.501,-0.393C0.501,-0.416 0.494,-0.434 0.48,-0.449C0.466,-0.464 0.448,-0.471 0.427,-0.471Z" style="fill-rule:nonzero;"/>
            </g>
            <g transform="matrix(416.667,0,0,416.667,5445.94,862.635)">
                <path d="M0.018,-0.415L0.018,-0.745L0.68,-0.745L0.68,-0.415L0.514,-0.415L0.514,0L0.184,0L0.184,-0.415L0.018,-0.415Z" style="fill-rule:nonzero;"/>
            </g>
            <g transform="matrix(416.667,0,0,416.667,5730.56,862.635)">
                <path d="M0.427,0.012C0.32,0.012 0.23,-0.025 0.156,-0.1C0.082,-0.175 0.045,-0.266 0.045,-0.373C0.045,-0.48 0.082,-0.571 0.156,-0.645C0.23,-0.72 0.32,-0.757 0.427,-0.757C0.534,-0.757 0.624,-0.72 0.698,-0.645C0.772,-0.571 0.809,-0.48 0.809,-0.373C0.809,-0.266 0.772,-0.175 0.698,-0.1C0.624,-0.025 0.534,0.012 0.427,0.012ZM0.427,-0.471C0.406,-0.471 0.388,-0.464 0.374,-0.449C0.36,-0.434 0.353,-0.416 0.353,-0.393C0.353,-0.371 0.36,-0.352 0.374,-0.337C0.388,-0.322 0.406,-0.315 0.427,-0.315C0.448,-0.315 0.466,-0.322 0.48,-0.337C0.494,-0.352 0.501,-0.371 0.501,-0.393C0.501,-0.416 0.494,-0.434 0.48,-0.449C0.466,-0.464 0.448,-0.471 0.427,-0.471Z" style="fill-rule:nonzero;"/>
            </g>
            <g transform="matrix(416.667,0,0,416.667,6086.4,862.635)">
                <path d="M0.698,-0.707L0.616,-0.472C0.563,-0.545 0.501,-0.581 0.431,-0.581C0.392,-0.581 0.373,-0.566 0.373,-0.537C0.373,-0.528 0.379,-0.519 0.391,-0.509C0.404,-0.5 0.436,-0.485 0.487,-0.465C0.544,-0.442 0.588,-0.422 0.619,-0.404C0.65,-0.385 0.673,-0.362 0.688,-0.333C0.703,-0.304 0.711,-0.271 0.711,-0.233C0.711,-0.153 0.681,-0.092 0.62,-0.051C0.56,-0.009 0.471,0.012 0.353,0.012C0.221,0.012 0.108,-0.007 0.012,-0.044L0.093,-0.293C0.116,-0.257 0.145,-0.228 0.18,-0.206C0.215,-0.185 0.248,-0.174 0.28,-0.174C0.295,-0.174 0.309,-0.178 0.319,-0.186C0.33,-0.194 0.335,-0.204 0.335,-0.216C0.335,-0.227 0.33,-0.237 0.32,-0.248C0.309,-0.258 0.282,-0.272 0.238,-0.29C0.199,-0.306 0.166,-0.321 0.14,-0.336C0.114,-0.351 0.091,-0.373 0.072,-0.401C0.053,-0.429 0.043,-0.464 0.043,-0.507C0.043,-0.59 0.073,-0.652 0.133,-0.694C0.194,-0.736 0.282,-0.757 0.4,-0.757C0.507,-0.757 0.607,-0.74 0.698,-0.707Z" style="fill-rule:nonzero;"/>
            </g>
        </g>
        <g transform="matrix(1,0,0,1,-7.33341,-415.837)">
            <g transform="matrix(416.667,0,0,416.667,96.4089,862.635)">
                <path d="M0.074,-0.745L0.441,-0.745C0.573,-0.745 0.675,-0.709 0.747,-0.635C0.819,-0.562 0.855,-0.474 0.855,-0.371C0.855,-0.305 0.839,-0.243 0.806,-0.185C0.773,-0.126 0.725,-0.081 0.662,-0.049C0.599,-0.016 0.523,0 0.433,0L0.074,0L0.074,-0.745ZM0.404,-0.46L0.404,-0.285L0.412,-0.285C0.452,-0.285 0.481,-0.292 0.498,-0.306C0.516,-0.32 0.525,-0.342 0.525,-0.374C0.525,-0.431 0.492,-0.46 0.425,-0.46L0.404,-0.46Z" style="fill:rgb(225,75,103);fill-rule:nonzero;"/>
            </g>
            <g transform="matrix(416.667,0,0,416.667,465.061,862.635)">
                <rect x="0.075" y="-0.745" width="0.33" height="0.745" style="fill:rgb(225,75,103);fill-rule:nonzero;"/>
            </g>
            <g transform="matrix(416.667,0,0,416.667,664.646,862.635)">
                <path d="M0.072,0L0.072,-0.745L0.402,-0.745L0.402,-0.187L0.691,-0.187L0.691,0L0.072,0Z" style="fill:rgb(225,75,103);fill-rule:nonzero;"/>
            </g>
            <g transform="matrix(416.667,0,0,416.667,955.58,862.635)">
                <path d="M0.072,0L0.072,-0.745L0.402,-0.745L0.402,-0.187L0.691,-0.187L0.691,0L0.072,0Z" style="fill:rgb(225,75,103);fill-rule:nonzero;"/>
            </g>
            <g transform="matrix(416.667,0,0,416.667,1246.51,862.635)">
                <path d="M0.427,0.012C0.32,0.012 0.23,-0.025 0.156,-0.1C0.082,-0.175 0.045,-0.266 0.045,-0.373C0.045,-0.48 0.082,-0.571 0.156,-0.645C0.23,-0.72 0.32,-0.757 0.427,-0.757C0.534,-0.757 0.624,-0.72 0.698,-0.645C0.772,-0.571 0.809,-0.48 0.809,-0.373C0.809,-0.266 0.772,-0.175 0.698,-0.1C0.624,-0.025 0.534,0.012 0.427,0.012ZM0.427,-0.471C0.406,-0.471 0.388,-0.464 0.374,-0.449C0.36,-0.434 0.353,-0.416 0.353,-0.393C0.353,-0.371 0.36,-0.352 0.374,-0.337C0.388,-0.322 0.406,-0.315 0.427,-0.315C0.448,-0.315 0.466,-0.322 0.48,-0.337C0.494,-0.352 0.501,-0.371 0.501,-0.393C0.501,-0.416 0.494,-0.434 0.48,-0.449C0.466,-0.464 0.448,-0.471 0.427,-0.471Z" style="fill:rgb(225,75,103);fill-rule:nonzero;"/>
            </g>
            <g transform="matrix(416.667,0,0,416.667,1602.35,862.635)">
                <path d="M0.813,0.006L0.563,0.006L0.403,-0.229L0.403,0L0.073,0L0.073,-0.745L0.309,-0.745L0.483,-0.493L0.483,-0.745L0.813,-0.745L0.813,0.006Z" style="fill:rgb(225,75,103);fill-rule:nonzero;"/>
            </g>
            <g transform="matrix(416.667,0,0,416.667,2109.76,862.635)">
                <path d="M0.176,-0.745L0.506,-0.745L0.506,-0.303C0.506,-0.208 0.501,-0.142 0.491,-0.106C0.481,-0.071 0.457,-0.042 0.421,-0.02C0.385,0.001 0.341,0.012 0.29,0.012C0.222,0.012 0.162,-0.004 0.11,-0.038C0.058,-0.071 0.023,-0.116 0.005,-0.173C0.023,-0.169 0.047,-0.167 0.076,-0.167C0.118,-0.167 0.146,-0.173 0.158,-0.186C0.17,-0.199 0.176,-0.225 0.176,-0.264L0.176,-0.745Z" style="fill:rgb(225,75,103);fill-rule:nonzero;"/>
            </g>
            <g transform="matrix(416.667,0,0,416.667,2344.33,862.635)">
                <path d="M0.427,0.012C0.32,0.012 0.23,-0.025 0.156,-0.1C0.082,-0.175 0.045,-0.266 0.045,-0.373C0.045,-0.48 0.082,-0.571 0.156,-0.645C0.23,-0.72 0.32,-0.757 0.427,-0.757C0.534,-0.757 0.624,-0.72 0.698,-0.645C0.772,-0.571 0.809,-0.48 0.809,-0.373C0.809,-0.266 0.772,-0.175 0.698,-0.1C0.624,-0.025 0.534,0.012 0.427,0.012ZM0.427,-0.471C0.406,-0.471 0.388,-0.464 0.374,-0.449C0.36,-0.434 0.353,-0.416 0.353,-0.393C0.353,-0.371 0.36,-0.352 0.374,-0.337C0.388,-0.322 0.406,-0.315 0.427,-0.315C0.448,-0.315 0.466,-0.322 0.48,-0.337C0.494,-0.352 0.501,-0.371 0.501,-0.393C0.501,-0.416 0.494,-0.434 0.48,-0.449C0.466,-0.464 0.448,-0.471 0.427,-0.471Z" style="fill:rgb(225,75,103);fill-rule:nonzero;"/>
            </g>
            <g transform="matrix(416.667,0,0,416.667,2700.17,862.635)">
                <path d="M0.073,-0.745L0.56,-0.745C0.644,-0.745 0.711,-0.724 0.759,-0.681C0.807,-0.639 0.831,-0.586 0.831,-0.522C0.831,-0.452 0.803,-0.397 0.746,-0.357C0.826,-0.265 0.875,-0.146 0.89,0L0.548,0C0.542,-0.094 0.528,-0.164 0.506,-0.208C0.484,-0.253 0.449,-0.276 0.403,-0.276L0.403,0L0.073,0L0.073,-0.745ZM0.403,-0.592L0.403,-0.448L0.412,-0.448C0.471,-0.448 0.501,-0.472 0.501,-0.518C0.501,-0.538 0.495,-0.555 0.483,-0.57C0.471,-0.584 0.451,-0.592 0.423,-0.592L0.403,-0.592Z" style="fill:rgb(225,75,103);fill-rule:nonzero;"/>
            </g>
            <g transform="matrix(416.667,0,0,416.667,3073.5,862.635)">
                <path d="M0.074,-0.745L0.441,-0.745C0.573,-0.745 0.675,-0.709 0.747,-0.635C0.819,-0.562 0.855,-0.474 0.855,-0.371C0.855,-0.305 0.839,-0.243 0.806,-0.185C0.773,-0.126 0.725,-0.081 0.662,-0.049C0.599,-0.016 0.523,0 0.433,0L0.074,0L0.074,-0.745ZM0.404,-0.46L0.404,-0.285L0.412,-0.285C0.452,-0.285 0.481,-0.292 0.498,-0.306C0.516,-0.32 0.525,-0.342 0.525,-0.374C0.525,-0.431 0.492,-0.46 0.425,-0.46L0.404,-0.46Z" style="fill:rgb(225,75,103);fill-rule:nonzero;"/>
            </g>
            <g transform="matrix(416.667,0,0,416.667,3425.47,862.635)">
                <path d="M0.331,0L0.001,0L0.26,-0.745L0.73,-0.745L0.989,0L0.659,0L0.616,-0.126L0.374,-0.126L0.331,0ZM0.434,-0.302L0.556,-0.302L0.495,-0.487L0.434,-0.302Z" style="fill:rgb(225,75,103);fill-rule:nonzero;"/>
            </g>
            <g transform="matrix(416.667,0,0,416.667,3838.07,862.635)">
                <path d="M0.813,0.006L0.563,0.006L0.403,-0.229L0.403,0L0.073,0L0.073,-0.745L0.309,-0.745L0.483,-0.493L0.483,-0.745L0.813,-0.745L0.813,0.006Z" style="fill:rgb(225,75,103);fill-rule:nonzero;"/>
            </g>
            <g transform="matrix(416.667,0,0,416.667,4345.47,862.635)">
                <path d="M0.075,-0.745L0.527,-0.745C0.622,-0.745 0.695,-0.721 0.747,-0.673C0.798,-0.624 0.823,-0.564 0.823,-0.493C0.823,-0.424 0.799,-0.364 0.75,-0.315C0.702,-0.267 0.644,-0.242 0.575,-0.242C0.518,-0.242 0.461,-0.264 0.405,-0.307L0.405,0L0.075,0L0.075,-0.745ZM0.405,-0.584L0.405,-0.422C0.415,-0.419 0.424,-0.418 0.432,-0.418C0.457,-0.418 0.477,-0.426 0.492,-0.441C0.507,-0.457 0.515,-0.478 0.515,-0.503C0.515,-0.528 0.509,-0.548 0.496,-0.562C0.483,-0.577 0.464,-0.584 0.44,-0.584L0.405,-0.584Z" style="fill:rgb(225,75,103);fill-rule:nonzero;"/>
            </g>
            <g transform="matrix(416.667,0,0,416.667,4692.56,862.635)">
                <path d="M0.4,0L0.07,0L0.07,-0.745L0.4,-0.745L0.4,-0.472L0.568,-0.472L0.568,-0.745L0.898,-0.745L0.898,0L0.568,0L0.568,-0.277L0.4,-0.277L0.4,0Z" style="fill:rgb(225,75,103);fill-rule:nonzero;"/>
            </g>
            <g transform="matrix(416.667,0,0,416.667,5096.41,862.635)">
                <path d="M0.427,0.012C0.32,0.012 0.23,-0.025 0.156,-0.1C0.082,-0.175 0.045,-0.266 0.045,-0.373C0.045,-0.48 0.082,-0.571 0.156,-0.645C0.23,-0.72 0.32,-0.757 0.427,-0.757C0.534,-0.757 0.624,-0.72 0.698,-0.645C0.772,-0.571 0.809,-0.48 0.809,-0.373C0.809,-0.266 0.772,-0.175 0.698,-0.1C0.624,-0.025 0.534,0.012 0.427,0.012ZM0.427,-0.471C0.406,-0.471 0.388,-0.464 0.374,-0.449C0.36,-0.434 0.353,-0.416 0.353,-0.393C0.353,-0.371 0.36,-0.352 0.374,-0.337C0.388,-0.322 0.406,-0.315 0.427,-0.315C0.448,-0.315 0.466,-0.322 0.48,-0.337C0.494,-0.352 0.501,-0.371 0.501,-0.393C0.501,-0.416 0.494,-0.434 0.48,-0.449C0.466,-0.464 0.448,-0.471 0.427,-0.471Z" style="fill:rgb(225,75,103);fill-rule:nonzero;"/>
            </g>
            <g transform="matrix(416.667,0,0,416.667,5445.94,862.635)">
                <path d="M0.018,-0.415L0.018,-0.745L0.68,-0.745L0.68,-0.415L0.514,-0.415L0.514,0L0.184,0L0.184,-0.415L0.018,-0.415Z" style="fill:rgb(225,75,103);fill-rule:nonzero;"/>
            </g>
            <g transform="matrix(416.667,0,0,416.667,5730.56,862.635)">
                <path d="M0.427,0.012C0.32,0.012 0.23,-0.025 0.156,-0.1C0.082,-0.175 0.045,-0.266 0.045,-0.373C0.045,-0.48 0.082,-0.571 0.156,-0.645C0.23,-0.72 0.32,-0.757 0.427,-0.757C0.534,-0.757 0.624,-0.72 0.698,-0.645C0.772,-0.571 0.809,-0.48 0.809,-0.373C0.809,-0.266 0.772,-0.175 0.698,-0.1C0.624,-0.025 0.534,0.012 0.427,0.012ZM0.427,-0.471C0.406,-0.471 0.388,-0.464 0.374,-0.449C0.36,-0.434 0.353,-0.416 0.353,-0.393C0.353,-0.371 0.36,-0.352 0.374,-0.337C0.388,-0.322 0.406,-0.315 0.427,-0.315C0.448,-0.315 0.466,-0.322 0.48,-0.337C0.494,-0.352 0.501,-0.371 0.501,-0.393C0.501,-0.416 0.494,-0.434 0.48,-0.449C0.466,-0.464 0.448,-0.471 0.427,-0.471Z" style="fill:rgb(225,75,103);fill-rule:nonzero;"/>
            </g>
            <g transform="matrix(416.667,0,0,416.667,6086.4,862.635)">
                <path d="M0.698,-0.707L0.616,-0.472C0.563,-0.545 0.501,-0.581 0.431,-0.581C0.392,-0.581 0.373,-0.566 0.373,-0.537C0.373,-0.528 0.379,-0.519 0.391,-0.509C0.404,-0.5 0.436,-0.485 0.487,-0.465C0.544,-0.442 0.588,-0.422 0.619,-0.404C0.65,-0.385 0.673,-0.362 0.688,-0.333C0.703,-0.304 0.711,-0.271 0.711,-0.233C0.711,-0.153 0.681,-0.092 0.62,-0.051C0.56,-0.009 0.471,0.012 0.353,0.012C0.221,0.012 0.108,-0.007 0.012,-0.044L0.093,-0.293C0.116,-0.257 0.145,-0.228 0.18,-0.206C0.215,-0.185 0.248,-0.174 0.28,-0.174C0.295,-0.174 0.309,-0.178 0.319,-0.186C0.33,-0.194 0.335,-0.204 0.335,-0.216C0.335,-0.227 0.33,-0.237 0.32,-0.248C0.309,-0.258 0.282,-0.272 0.238,-0.29C0.199,-0.306 0.166,-0.321 0.14,-0.336C0.114,-0.351 0.091,-0.373 0.072,-0.401C0.053,-0.429 0.043,-0.464 0.043,-0.507C0.043,-0.59 0.073,-0.652 0.133,-0.694C0.194,-0.736 0.282,-0.757 0.4,-0.757C0.507,-0.757 0.607,-0.74 0.698,-0.707Z" style="fill:rgb(225,75,103);fill-rule:nonzero;"/>
            </g>
        </g>
    </g>
</svg>
